<svg version="1.1" xmlns="http://www.w3.org/2000/svg" viewBox="0 0 1580.8951395804174 623.9489609497562" width="3161.790279160835" height="1247.8979218995123">
  <!-- svg-source:excalidraw -->
  
  <defs>
    <style>
      @font-face {
        font-family: "Virgil";
        src: url("https://excalidraw.com/Virgil.woff2");
      }
      @font-face {
        font-family: "Cascadia";
        src: url("https://excalidraw.com/Cascadia.woff2");
      }
    </style>
  </defs>
  <rect x="0" y="0" width="1580.8951395804174" height="623.9489609497562" fill="#ffffff"></rect><g transform="translate(260.5903447149477 374.8982416432344) rotate(0 40.5 12.5)"><text x="0" y="18" font-family="Virgil, Segoe UI Emoji" font-size="20px" fill="#000000" text-anchor="start" style="white-space: pre;" direction="ltr">Weather</text></g><g transform="translate(152.11679648590837 225.83261353050017) rotate(0 137.5 12.5)"><text x="0" y="18" font-family="Virgil, Segoe UI Emoji" font-size="20px" fill="#000000" text-anchor="start" style="white-space: pre;" direction="ltr">Renewable energy production</text></g><g stroke-linecap="round"><g transform="translate(296.94453750547814 366.8982416432344) rotate(0 7.025861730895826 -54.40278069445536)"><path d="M-0.32 -0.03 C1.7 -17.75, 9.77 -89.21, 12.23 -107.14 M1.71 -1.1 C4.08 -19.06, 12.29 -90.68, 14.37 -108.77" stroke="#000000" stroke-width="1" fill="none"></path></g><g transform="translate(296.94453750547814 366.8982416432344) rotate(0 7.025861730895826 -54.40278069445536)"><path d="M21.29 -81.39 C20.93 -86.82, 18.02 -99.49, 14.57 -109.64 M21.15 -80.04 C18.57 -90.57, 16.54 -100.32, 14.68 -108.56" stroke="#000000" stroke-width="1" fill="none"></path></g><g transform="translate(296.94453750547814 366.8982416432344) rotate(0 7.025861730895826 -54.40278069445536)"><path d="M0.9 -83.73 C6.85 -88.39, 10.27 -100.32, 14.57 -109.64 M0.77 -82.39 C5.17 -91.92, 10.14 -100.86, 14.68 -108.56" stroke="#000000" stroke-width="1" fill="none"></path></g></g><g transform="translate(84.22029001142096 87.94651806849629) rotate(0 156 12.5)"><text x="0" y="18" font-family="Virgil, Segoe UI Emoji" font-size="20px" fill="#000000" text-anchor="start" style="white-space: pre;" direction="ltr">Non-renewable energy production</text></g><g stroke-linecap="round"><g transform="translate(269.66404527229815 213.83261353050017) rotate(0 6.572208673347234 -46.67472309254583)"><path d="M-1.08 0.93 C1.35 -14.47, 12.03 -76.79, 14.22 -92.41 M0.56 0.37 C2.95 -15.39, 11.55 -78.98, 13.85 -94.28" stroke="#000000" stroke-width="1" fill="none"></path></g><g transform="translate(269.66404527229815 213.83261353050017) rotate(0 6.572208673347234 -46.67472309254583)"><path d="M21.6 -63.09 C19.16 -74.77, 16.86 -81.89, 14.71 -94.63 M19.61 -65.83 C18.75 -71.66, 17.85 -76.86, 13.19 -93.72" stroke="#000000" stroke-width="1" fill="none"></path></g><g transform="translate(269.66404527229815 213.83261353050017) rotate(0 6.572208673347234 -46.67472309254583)"><path d="M1.28 -65.97 C4.4 -76.69, 7.65 -83.01, 14.71 -94.63 M-0.7 -68.71 C2.63 -73.85, 5.92 -78.46, 13.19 -93.72" stroke="#000000" stroke-width="1" fill="none"></path></g></g><g transform="translate(371.8791547870147 10) rotate(0 64.5 12.5)"><text x="0" y="18" font-family="Virgil, Segoe UI Emoji" font-size="20px" fill="#000000" text-anchor="start" style="white-space: pre;" direction="ltr">Energy supply</text></g><g stroke-linecap="round"><g transform="translate(357.0345046756624 209.3351687368957) rotate(0 57.801248795041374 -83.87000591256759)"><path d="M1.1 0.48 C20.15 -27.71, 94.45 -140.17, 113.22 -168.22 M0.22 -0.31 C19.73 -28.37, 96.63 -138.36, 115.38 -166.62" stroke="#000000" stroke-width="1" fill="none"></path></g><g transform="translate(357.0345046756624 209.3351687368957) rotate(0 57.801248795041374 -83.87000591256759)"><path d="M108.74 -139.33 C109.47 -144.6, 111.7 -150.2, 113.51 -166.99 M107.87 -138.2 C110.27 -144.69, 111.19 -151.76, 116.03 -166.57" stroke="#000000" stroke-width="1" fill="none"></path></g><g transform="translate(357.0345046756624 209.3351687368957) rotate(0 57.801248795041374 -83.87000591256759)"><path d="M91.8 -150.91 C96.18 -153.91, 101.98 -157.07, 113.51 -166.99 M90.93 -149.78 C97.59 -153.16, 102.84 -157.28, 116.03 -166.57" stroke="#000000" stroke-width="1" fill="none"></path></g></g><g stroke-linecap="round"><g transform="translate(280.0361763375371 77.94651806849629) rotate(0 43.12736908345255 -20.990317856953553)"><path d="M0.48 -1.06 C14.82 -8.41, 72.5 -36.04, 86.98 -42.97 M-0.73 0.99 C13.39 -5.68, 71.49 -34.63, 86.1 -41.71" stroke="#000000" stroke-width="1" fill="none"></path></g><g transform="translate(280.0361763375371 77.94651806849629) rotate(0 43.12736908345255 -20.990317856953553)"><path d="M63.56 -19.86 C72.1 -27.45, 80.45 -38.35, 85.72 -42.61 M64.69 -19.75 C71.06 -26.26, 76.73 -30.5, 86.15 -42.13" stroke="#000000" stroke-width="1" fill="none"></path></g><g transform="translate(280.0361763375371 77.94651806849629) rotate(0 43.12736908345255 -20.990317856953553)"><path d="M54.5 -38.28 C66.63 -38.95, 78.4 -42.9, 85.72 -42.61 M55.63 -38.17 C64.16 -39.95, 72.15 -39.46, 86.15 -42.13" stroke="#000000" stroke-width="1" fill="none"></path></g></g><g transform="translate(10 353.66464867141804) rotate(0 64 12.5)"><text x="0" y="18" font-family="Virgil, Segoe UI Emoji" font-size="20px" fill="#000000" text-anchor="start" style="white-space: pre;" direction="ltr">Time of year</text></g><g stroke-linecap="round"><g transform="translate(149 372.8469913086153) rotate(0 53.911731515748755 8.078273294667213)"><path d="M0.12 -0.52 C18.22 2.2, 91.21 12.62, 109.11 15.25 M-1.28 1.82 C16.67 4.82, 89.92 14.24, 108.43 16.67" stroke="#000000" stroke-width="1" fill="none"></path></g><g transform="translate(149 372.8469913086153) rotate(0 53.911731515748755 8.078273294667213)"><path d="M78.28 24.06 C88.81 19.08, 98.74 17.84, 107.56 14.87 M79.36 22.54 C88.32 21.85, 96.41 18.87, 108.39 17.54" stroke="#000000" stroke-width="1" fill="none"></path></g><g transform="translate(149 372.8469913086153) rotate(0 53.911731515748755 8.078273294667213)"><path d="M80.94 3.71 C90.38 5.66, 99.41 11.32, 107.56 14.87 M82.02 2.19 C90.07 7.48, 97.37 10.46, 108.39 17.54" stroke="#000000" stroke-width="1" fill="none"></path></g></g><g transform="translate(297.97751856150677 502.34230222889613) rotate(0 70.99999999999997 12.5)"><text x="0" y="18" font-family="Virgil, Segoe UI Emoji" font-size="20px" fill="#000000" text-anchor="start" style="white-space: pre;" direction="ltr">Energy demand</text></g><g stroke-linecap="round"><g transform="translate(77.36661604863596 393.66464867141804) rotate(0 108.82523855306309 52.370919523803266)"><path d="M0.52 -0.21 C36.53 17.32, 180.16 87.25, 216.2 104.69 M-0.67 -1.37 C35.69 16.4, 182.26 88.31, 218.32 106.11" stroke="#000000" stroke-width="1" fill="none"></path></g><g transform="translate(77.36661604863596 393.66464867141804) rotate(0 108.82523855306309 52.370919523803266)"><path d="M188.15 101 C197.35 102.85, 206.08 102.94, 218.18 104.82 M189.05 103.53 C198.41 103.72, 208.17 106.07, 219.18 105.48" stroke="#000000" stroke-width="1" fill="none"></path></g><g transform="translate(77.36661604863596 393.66464867141804) rotate(0 108.82523855306309 52.370919523803266)"><path d="M197.2 82.59 C203.52 90.17, 209.45 95.97, 218.18 104.82 M198.11 85.11 C204.52 91.33, 211.28 99.77, 219.18 105.48" stroke="#000000" stroke-width="1" fill="none"></path></g></g><g stroke-linecap="round"><g transform="translate(144.82783638351736 344.5556183874022) rotate(0 32.27139648935011 -39.24670580694758)"><path d="M-0.21 -1.12 C10.93 -14.44, 55.28 -66.26, 66.32 -79.4 M-1.78 0.9 C9.23 -12.3, 54.13 -64.79, 65.26 -78.14" stroke="#000000" stroke-width="1" fill="none"></path></g><g transform="translate(144.82783638351736 344.5556183874022) rotate(0 32.27139648935011 -39.24670580694758)"><path d="M53.02 -50.36 C56.53 -58.07, 58.28 -64.57, 63.97 -77.54 M55.54 -49.94 C57.99 -59.14, 62.6 -67.28, 64.63 -78.65" stroke="#000000" stroke-width="1" fill="none"></path></g><g transform="translate(144.82783638351736 344.5556183874022) rotate(0 32.27139648935011 -39.24670580694758)"><path d="M37.35 -63.62 C44.94 -67.89, 50.72 -70.99, 63.97 -77.54 M39.87 -63.19 C47.27 -68.22, 56.92 -72.1, 64.63 -78.65" stroke="#000000" stroke-width="1" fill="none"></path></g></g><g stroke-linecap="round"><g transform="translate(285.5125017529448 408.57849727274896) rotate(0 22.190014782693652 41.990388584952655)"><path d="M-1.12 -0.22 C6.38 13.83, 37.82 69.98, 45.5 84.1 M0.49 -1.39 C7.74 12.84, 36.47 70.83, 44.27 85.37" stroke="#000000" stroke-width="1" fill="none"></path></g><g transform="translate(285.5125017529448 408.57849727274896) rotate(0 22.190014782693652 41.990388584952655)"><path d="M21.9 64.07 C28.91 70.36, 37.19 77.88, 44.88 85.79 M22.32 64.56 C27.48 70.46, 33.52 73.73, 43.76 85.2" stroke="#000000" stroke-width="1" fill="none"></path></g><g transform="translate(285.5125017529448 408.57849727274896) rotate(0 22.190014782693652 41.990388584952655)"><path d="M40.15 54.7 C40.89 64.04, 42.9 74.77, 44.88 85.79 M40.58 55.19 C41.52 63.39, 43.3 68.85, 43.76 85.2" stroke="#000000" stroke-width="1" fill="none"></path></g></g><g transform="translate(557.7900324177677 259.8057887125196) rotate(0 24 12.5)"><text x="0" y="18" font-family="Virgil, Segoe UI Emoji" font-size="20px" fill="#000000" text-anchor="start" style="white-space: pre;" direction="ltr">Price</text></g><g stroke-linecap="round"><g transform="translate(506.5169466650159 43.72980323122886) rotate(0 26.15652339391147 103.71705760823012)"><path d="M-0.54 -0.52 C8.1 33.93, 42.12 171.89, 50.71 206.46 M1.38 1.82 C10.47 36.48, 44.16 174.13, 52.85 207.96" stroke="#000000" stroke-width="1" fill="none"></path></g><g transform="translate(506.5169466650159 43.72980323122886) rotate(0 26.15652339391147 103.71705760823012)"><path d="M35.19 181.29 C39.34 187.02, 43.56 193.87, 51.52 209.06 M36.01 183.96 C43.07 191.62, 47.83 201.17, 53.34 207.5" stroke="#000000" stroke-width="1" fill="none"></path></g><g transform="translate(506.5169466650159 43.72980323122886) rotate(0 26.15652339391147 103.71705760823012)"><path d="M55.09 176.31 C55.13 182.98, 55.23 190.85, 51.52 209.06 M55.92 178.98 C55.7 188.38, 53.2 199.74, 53.34 207.5" stroke="#000000" stroke-width="1" fill="none"></path></g></g><g stroke-linecap="round"><g transform="translate(441.9989932323525 490.2641383364654) rotate(0 59.64517340010531 -97.07703966240362)"><path d="M-0.52 -1.09 C19.48 -33.51, 99.68 -162.95, 119.81 -195.11 M1.4 0.96 C21.26 -31.29, 99.11 -161.72, 118.82 -193.98" stroke="#000000" stroke-width="1" fill="none"></path></g><g transform="translate(441.9989932323525 490.2641383364654) rotate(0 59.64517340010531 -97.07703966240362)"><path d="M111.24 -164.68 C113.52 -172.19, 116.86 -182.41, 119.93 -192.67 M113.91 -163.68 C114.31 -174.04, 116.53 -182.03, 118.36 -194.79" stroke="#000000" stroke-width="1" fill="none"></path></g><g transform="translate(441.9989932323525 490.2641383364654) rotate(0 59.64517340010531 -97.07703966240362)"><path d="M93.67 -175.28 C100.84 -179.73, 109.12 -186.97, 119.93 -192.67 M96.34 -174.28 C102.06 -181.39, 109.64 -186.15, 118.36 -194.79" stroke="#000000" stroke-width="1" fill="none"></path></g></g><g transform="translate(1126.3085686082536 395.4217340200154) rotate(0 40.5 12.5)"><text x="0" y="18" font-family="Virgil, Segoe UI Emoji" font-size="20px" fill="#000000" text-anchor="start" style="white-space: pre;" direction="ltr">Weather</text></g><g transform="translate(1017.8350203792143 246.35610590728112) rotate(0 137.5 12.5)"><text x="0" y="18" font-family="Virgil, Segoe UI Emoji" font-size="20px" fill="#000000" text-anchor="start" style="white-space: pre;" direction="ltr">Renewable energy production</text></g><g stroke-linecap="round"><g transform="translate(1162.7450142890889 387.4217340200154) rotate(0 7.125359102313155 -53.49380156280146)"><path d="M-0.58 0.93 C1.32 -17.19, 10.39 -89.93, 12.5 -107.92 M1.32 0.37 C3.51 -17.6, 12.64 -88.12, 14.83 -106.3" stroke="#000000" stroke-width="1" fill="none"></path></g><g transform="translate(1162.7450142890889 387.4217340200154) rotate(0 7.125359102313155 -53.49380156280146)"><path d="M23.05 -78.27 C18.92 -90.49, 17.88 -99.26, 15.28 -105.27 M21.1 -77.34 C19.18 -84.32, 18.39 -92.87, 14.97 -106.86" stroke="#000000" stroke-width="1" fill="none"></path></g><g transform="translate(1162.7450142890889 387.4217340200154) rotate(0 7.125359102313155 -53.49380156280146)"><path d="M2.69 -80.82 C6.61 -91.93, 13.58 -99.7, 15.28 -105.27 M0.74 -79.89 C4.53 -86.33, 9.45 -94.16, 14.97 -106.86" stroke="#000000" stroke-width="1" fill="none"></path></g></g><g transform="translate(951.1622762444317 108.47001044527724) rotate(0 156 12.5)"><text x="0" y="18" font-family="Virgil, Segoe UI Emoji" font-size="20px" fill="#000000" text-anchor="start" style="white-space: pre;" direction="ltr">Non-renewable energy production</text></g><g stroke-linecap="round"><g transform="translate(1135.3856068106677 234.35610590728112) rotate(0 6.7813629197102046 -46.50267099217054)"><path d="M-0.98 0.48 C1.49 -15.19, 11.84 -77.72, 14.54 -93.48 M0.71 -0.32 C3.08 -15.88, 11.42 -76.75, 13.8 -92.26" stroke="#000000" stroke-width="1" fill="none"></path></g><g transform="translate(1135.3856068106677 234.35610590728112) rotate(0 6.7813629197102046 -46.50267099217054)"><path d="M20.72 -62.24 C17.12 -69.28, 14.45 -80.23, 13.32 -91.51 M20.48 -62.54 C18.28 -70.43, 17.01 -80.17, 13.3 -92.61" stroke="#000000" stroke-width="1" fill="none"></path></g><g transform="translate(1135.3856068106677 234.35610590728112) rotate(0 6.7813629197102046 -46.50267099217054)"><path d="M0.41 -65.17 C2.43 -71.24, 5.37 -81.38, 13.32 -91.51 M0.17 -65.47 C3.76 -72.41, 8.3 -81.32, 13.3 -92.61" stroke="#000000" stroke-width="1" fill="none"></path></g></g><g transform="translate(1237.5973786803206 30.52349237678095) rotate(0 64.5 12.5)"><text x="0" y="18" font-family="Virgil, Segoe UI Emoji" font-size="20px" fill="#000000" text-anchor="start" style="white-space: pre;" direction="ltr">Energy supply</text></g><g stroke-linecap="round"><g transform="translate(1222.7527285689682 229.85866111367665) rotate(0 57.435992060718604 -84.58333213799736)"><path d="M0.5 -0.09 C19.54 -28.22, 94.55 -141.04, 113.35 -169.08 M-0.7 -1.18 C18.79 -29.15, 96.18 -140.3, 115.58 -167.93" stroke="#000000" stroke-width="1" fill="none"></path></g><g transform="translate(1222.7527285689682 229.85866111367665) rotate(0 57.435992060718604 -84.58333213799736)"><path d="M107.69 -140.5 C108.41 -147.16, 111.48 -153.97, 116.66 -166.76 M108.66 -138.48 C111.39 -151.09, 113.82 -161.56, 115.19 -167.27" stroke="#000000" stroke-width="1" fill="none"></path></g><g transform="translate(1222.7527285689682 229.85866111367665) rotate(0 57.435992060718604 -84.58333213799736)"><path d="M90.87 -152.26 C95.35 -156.33, 102.21 -160.5, 116.66 -166.76 M91.84 -150.23 C101.17 -158.27, 110.28 -164.08, 115.19 -167.27" stroke="#000000" stroke-width="1" fill="none"></path></g></g><g stroke-linecap="round"><g transform="translate(1146.7177990157722 98.47001044527724) rotate(0 43.478647853263965 -20.922451892492006)"><path d="M0.53 0.53 C14.94 -6.39, 70.94 -35.05, 85.24 -42.37 M-0.64 -0.24 C14.26 -6.88, 73.19 -33.8, 87.6 -40.87" stroke="#000000" stroke-width="1" fill="none"></path></g><g transform="translate(1146.7177990157722 98.47001044527724) rotate(0 43.478647853263965 -20.922451892492006)"><path d="M67.35 -20.7 C70.76 -23.22, 73.32 -27.06, 87.01 -42.46 M67.06 -18.71 C71.54 -24.97, 77.27 -31.94, 88.43 -41.28" stroke="#000000" stroke-width="1" fill="none"></path></g><g transform="translate(1146.7177990157722 98.47001044527724) rotate(0 43.478647853263965 -20.922451892492006)"><path d="M58.61 -39.27 C63.65 -38.1, 67.95 -38.21, 87.01 -42.46 M58.33 -37.28 C65.39 -38.42, 73.53 -40.25, 88.43 -41.28" stroke="#000000" stroke-width="1" fill="none"></path></g></g><g transform="translate(875.7182238933059 374.188141048199) rotate(0 64.00000000000006 12.5)"><text x="0" y="18" font-family="Virgil, Segoe UI Emoji" font-size="20px" fill="#000000" text-anchor="start" style="white-space: pre;" direction="ltr">Time of year</text></g><g stroke-linecap="round"><g transform="translate(1014.718223893306 393.37048368539627) rotate(0 54.531123756532 7.620954552401301)"><path d="M-1.19 0.18 C16.81 2.88, 89.48 13.66, 107.9 16.01 M0.38 -0.77 C18.79 1.59, 92.16 11.55, 110.25 14.17" stroke="#000000" stroke-width="1" fill="none"></path></g><g transform="translate(1014.718223893306 393.37048368539627) rotate(0 54.531123756532 7.620954552401301)"><path d="M81.22 19.3 C90.38 20.16, 96.03 15.95, 112.19 13.74 M80.62 20.67 C90.22 18.72, 99.49 16.36, 110.54 14.02" stroke="#000000" stroke-width="1" fill="none"></path></g><g transform="translate(1014.718223893306 393.37048368539627) rotate(0 54.531123756532 7.620954552401301)"><path d="M84.06 -1.03 C92.36 5.72, 97.18 7.42, 112.19 13.74 M83.45 0.35 C92.06 4.73, 100.44 8.7, 110.54 14.02" stroke="#000000" stroke-width="1" fill="none"></path></g></g><g transform="translate(914.0482251549586 588.9489609497562) rotate(0 71 12.5)"><text x="0" y="18" font-family="Virgil, Segoe UI Emoji" font-size="20px" fill="#000000" text-anchor="start" style="white-space: pre;" direction="ltr">Energy demand</text></g><g stroke-linecap="round"><g transform="translate(906.5416877628456 414.188141048199) rotate(0 21.92338789283815 85.30700115220314)"><path d="M1.17 1.02 C8.62 29.44, 36.42 141.96, 43.52 170.1 M0.33 0.51 C7.77 28.59, 35.67 139.71, 42.84 168.16" stroke="#000000" stroke-width="1" fill="none"></path></g><g transform="translate(906.5416877628456 414.188141048199) rotate(0 21.92338789283815 85.30700115220314)"><path d="M27.71 144.18 C29.9 149.41, 32.88 151.42, 42.33 169.31 M25.73 143.33 C30.1 147.58, 32.03 152.85, 41.89 168.23" stroke="#000000" stroke-width="1" fill="none"></path></g><g transform="translate(906.5416877628456 414.188141048199) rotate(0 21.92338789283815 85.30700115220314)"><path d="M47.61 139.17 C45.75 145.61, 44.71 148.64, 42.33 169.31 M45.63 138.32 C45.97 143.52, 43.86 149.81, 41.89 168.23" stroke="#000000" stroke-width="1" fill="none"></path></g></g><g stroke-linecap="round"><g transform="translate(1009.2907819021357 367.02792609899046) rotate(0 34.167296997561266 -39.790756558758076)"><path d="M-0.7 -0.89 C10.95 -14.45, 57.47 -67.36, 69.04 -80.85 M1.13 1.26 C12.8 -12.14, 57.47 -65.61, 68.68 -79.33" stroke="#000000" stroke-width="1" fill="none"></path></g><g transform="translate(1009.2907819021357 367.02792609899046) rotate(0 34.167296997561266 -39.790756558758076)"><path d="M57.13 -49.19 C60.7 -56.08, 61.36 -62.06, 67.17 -81.27 M58.53 -50.17 C62.64 -59.78, 65.54 -69.65, 69.48 -78.61" stroke="#000000" stroke-width="1" fill="none"></path></g><g transform="translate(1009.2907819021357 367.02792609899046) rotate(0 34.167296997561266 -39.790756558758076)"><path d="M41.32 -62.28 C48.55 -66.1, 52.8 -69.11, 67.17 -81.27 M42.73 -63.26 C52.05 -68.69, 60.11 -74.29, 69.48 -78.61" stroke="#000000" stroke-width="1" fill="none"></path></g></g><g stroke-linecap="round"><g transform="translate(1120.1689321183349 426.55783225630336) rotate(0 -70.70613735292545 75.96296546274081)"><path d="M-0.47 -0.42 C-24.07 25.17, -118.49 128.09, -142.06 153.61 M1.48 -1.68 C-22.22 23.53, -118.91 125.77, -142.9 151.67" stroke="#000000" stroke-width="1" fill="none"></path></g><g transform="translate(1120.1689321183349 426.55783225630336) rotate(0 -70.70613735292545 75.96296546274081)"><path d="M-131.8 124.44 C-133.59 131.92, -138.21 139.05, -144.55 152.19 M-130.12 123.66 C-134.13 128.79, -136.58 134.46, -143.17 152.11" stroke="#000000" stroke-width="1" fill="none"></path></g><g transform="translate(1120.1689321183349 426.55783225630336) rotate(0 -70.70613735292545 75.96296546274081)"><path d="M-116.83 138.47 C-122.55 142.21, -131.09 145.67, -144.55 152.19 M-115.15 137.69 C-122.21 139.94, -127.65 142.79, -143.17 152.11" stroke="#000000" stroke-width="1" fill="none"></path></g></g><g transform="translate(1522.8951395804174 381.80681729205577) rotate(0 24 12.5)"><text x="0" y="18" font-family="Virgil, Segoe UI Emoji" font-size="20px" fill="#000000" text-anchor="start" style="white-space: pre;" direction="ltr">Price</text></g><g stroke-linecap="round"><g transform="translate(1376.3441651027513 59.12825535805314) rotate(0 69.90499856557835 157.41042284109318)"><path d="M0.02 -0.19 C23.71 52.23, 117.65 262.01, 141.24 314.58 M-1.43 -1.34 C22.14 51.29, 116.38 263.72, 140.09 316.16" stroke="#000000" stroke-width="1" fill="none"></path></g><g transform="translate(1376.3441651027513 59.12825535805314) rotate(0 69.90499856557835 157.41042284109318)"><path d="M118.89 293.95 C124.06 299.39, 129.88 302.56, 138.45 315.33 M120.07 295.1 C126.87 303.64, 136.33 312.18, 140.81 315.16" stroke="#000000" stroke-width="1" fill="none"></path></g><g transform="translate(1376.3441651027513 59.12825535805314) rotate(0 69.90499856557835 157.41042284109318)"><path d="M137.63 285.57 C138.56 292.9, 140.15 297.97, 138.45 315.33 M138.8 286.73 C138.22 298.51, 140.23 310.38, 140.81 315.16" stroke="#000000" stroke-width="1" fill="none"></path></g></g><g stroke-linecap="round"><g transform="translate(1068.2943838529868 597.1066167661888) rotate(0 221.6623628872279 -95.78475423509327)"><path d="M-0.38 0.43 C73.48 -31.32, 369.72 -158.42, 443.7 -190.43 M1.62 -0.38 C75.3 -32.45, 369.35 -160.34, 442.87 -192" stroke="#000000" stroke-width="1" fill="none"></path></g><g transform="translate(1068.2943838529868 597.1066167661888) rotate(0 221.6623628872279 -95.78475423509327)"><path d="M421.81 -171.02 C430.33 -178.39, 435.9 -185.35, 442.65 -192.19 M420.45 -170.41 C427.07 -179.18, 434.09 -183.83, 442.51 -191.56" stroke="#000000" stroke-width="1" fill="none"></path></g><g transform="translate(1068.2943838529868 597.1066167661888) rotate(0 221.6623628872279 -95.78475423509327)"><path d="M413.65 -189.85 C425.01 -190.69, 433.39 -191.15, 442.65 -192.19 M412.3 -189.24 C421.59 -192.03, 431.23 -190.63, 442.51 -191.56" stroke="#000000" stroke-width="1" fill="none"></path></g></g><g stroke-linecap="round"><g transform="translate(455.4889286306792 523.0009082806151) rotate(0 276.79884538755084 -134.15622624311976)"><path d="M0.3 -0.06 C92.62 -44.92, 462.09 -223.62, 554.59 -268.25 M-0.99 -1.14 C91.14 -45.89, 461.2 -222.64, 553.88 -266.86" stroke="#000000" stroke-width="1" fill="none"></path></g><g transform="translate(455.4889286306792 523.0009082806151) rotate(0 276.79884538755084 -134.15622624311976)"><path d="M532.76 -244.69 C539.8 -251.29, 548.07 -260.07, 553.4 -268.13 M533.04 -244.56 C539 -252.84, 545.67 -258.38, 554.87 -266.74" stroke="#000000" stroke-width="1" fill="none"></path></g><g transform="translate(455.4889286306792 523.0009082806151) rotate(0 276.79884538755084 -134.15622624311976)"><path d="M523.92 -263.21 C534.28 -263.16, 545.73 -265.27, 553.4 -268.13 M524.19 -263.08 C532.74 -265.64, 542.13 -265.49, 554.87 -266.74" stroke="#000000" stroke-width="1" fill="none"></path></g></g><g stroke-linecap="round"><g transform="translate(450.36500004766856 502.94929699551864) rotate(0 247.65871890218563 -181.76835472575593)"><path d="M1.06 0.83 C83.5 -59.39, 412.65 -301.69, 495.16 -362.44 M0.16 0.22 C82.4 -60.28, 411.67 -303.87, 494.3 -364.37" stroke="#000000" stroke-width="1" fill="none"></path></g><g transform="translate(450.36500004766856 502.94929699551864) rotate(0 247.65871890218563 -181.76835472575593)"><path d="M479.07 -339.12 C484.27 -346.33, 487.99 -355.61, 496.01 -364.37 M477.76 -340.04 C483.06 -345.6, 486.17 -353.98, 494.87 -364.53" stroke="#000000" stroke-width="1" fill="none"></path></g><g transform="translate(450.36500004766856 502.94929699551864) rotate(0 247.65871890218563 -181.76835472575593)"><path d="M466.9 -355.64 C476.16 -357.25, 484.09 -360.81, 496.01 -364.37 M465.59 -356.56 C474.06 -357.73, 480.49 -361.61, 494.87 -364.53" stroke="#000000" stroke-width="1" fill="none"></path></g></g><g stroke-linecap="round"><g transform="translate(614.1104496822129 294.761881520502) rotate(0 146.61154263457155 142.20826472506567)"><path d="M-0.9 0.24 C48.14 47.86, 244.75 237.86, 294.12 285.1 M0.83 -0.68 C49.71 46.68, 244.05 235.91, 293.1 283.5" stroke="#000000" stroke-width="1" fill="none"></path></g><g transform="translate(614.1104496822129 294.761881520502) rotate(0 146.61154263457155 142.20826472506567)"><path d="M266.13 270.97 C275.28 276.76, 280.92 279.7, 292.25 281.86 M265.01 271.22 C275.6 275.78, 286.9 280.33, 293.09 282.77" stroke="#000000" stroke-width="1" fill="none"></path></g><g transform="translate(614.1104496822129 294.761881520502) rotate(0 146.61154263457155 142.20826472506567)"><path d="M280.43 256.25 C285.34 266.22, 286.81 273.45, 292.25 281.86 M279.32 256.51 C284.61 266.69, 290.51 276.78, 293.09 282.77" stroke="#000000" stroke-width="1" fill="none"></path></g></g></svg>